<svg xmlns="http://www.w3.org/2000/svg" xmlns:xlink="http://www.w3.org/1999/xlink" viewBox="0 0 400 300" width="406" height="306" class="illustration styles_illustrationTablet__1DWOa"><defs><linearGradient id="linear-gradient" x1="-828.19" y1="202.45" x2="-889.43" y2="235.44" gradientTransform="translate(1029.2)" gradientUnits="userSpaceOnUse"><stop offset="0" stop-color="#d4a397"></stop><stop offset="1" stop-color="#fff"></stop></linearGradient></defs><title>A_</title><g style="isolation: isolate;"><g id="Layer_2" data-name="Layer 2"><path d="M376.23,184.27c-38.57,20.7-152,86.18-187.77,106.85a21.68,21.68,0,0,1-21.79,0l-136-79.42c-5.41-3.16-3.68-9.13,1.77-12.22L222.22,89.16a6.49,6.49,0,0,1,6.41,0l147.73,84A6.33,6.33,0,0,1,376.23,184.27Z" fill="#ffdbc2"></path><path d="M325.54,191.6c-28.85,15.48-113.72,64.46-140.44,79.92a16.22,16.22,0,0,1-16.3,0L67.09,212.07c-4-2.36-2.75-6.83,1.33-9.14l141.95-82.47a4.86,4.86,0,0,1,4.79,0l110.49,62.84A4.74,4.74,0,0,1,325.54,191.6Z" fill="#ffb888"></path><path d="M323.51,155s-2.29,19.66,8.12,23.47,16-6.1,16.13-23.47" fill="#06577a"></path><ellipse cx="335.64" cy="155.03" rx="12.12" ry="7.01" fill="#f2696a"></ellipse><path d="M338.75,139.44s-4.76-6.87-2.68-11.62c0,0,1.71-3.05,4.14-3.54,0,0-.24,6.51,2.18,5.68s0-6.82,0-6.82,2.55-3.45,5.34-3.34,0,6.09,1.94,5.1.12-6.08,2.3-6.69a45.82,45.82,0,0,1,6.06-1s2.06,5.94,0,6.79-5.09,1.14-3.64,2.45,5.58-.2,5.58-.2.26,3.34-1.14,4.79-9.65-1.75-8.19,1.12,6.91,1.43,6.91,1.43-2.79,4-6.06,5.8S338.75,139.44,338.75,139.44Z" fill="#8ccc00"></path><path d="M339.86,156.63s-3.44-3.39-2.76-6.31a4.46,4.46,0,0,1,2-2.45s.56,3.72,1.85,3-.73-3.87-.73-3.87,1.08-2.23,2.67-2.47.65,3.46,1.65,2.69-.58-3.47.59-4a26.47,26.47,0,0,1,3.34-1.2s1.8,3.15.72,3.86-2.77,1.19-1.8,1.78,3.15-.71,3.15-.71.5,1.87-.14,2.84-5.66,0-4.53,1.51,4.08.08,4.08.08a12.91,12.91,0,0,1-2.82,3.94C345.42,156.66,339.86,156.63,339.86,156.63Z" fill="#8ccc00"></path><path d="M327.22,149.3s-8.35.32-11.24-4c0,0-1.65-3.08-.76-5.39,0,0,5.36,3.7,6,1.21s-5.75-3.66-5.75-3.66-1.54-4,0-6.29,5.14,3.27,5.34,1.1-5.07-3.37-4.4-5.54a45.82,45.82,0,0,1,2.44-5.64s6.12,1.45,5.73,3.65-1.78,4.91.11,4.38,2.83-4.81,2.83-4.81,3,1.58,3.42,3.54-6.66,7.2-3.46,7.51,4.92-5.06,4.92-5.06,1.86,4.49,1.64,8.23S327.22,149.3,327.22,149.3Z" fill="#8ccc00"></path><path d="M356.21,119.88l-2.67,2.28c.09-.95.2-1.89.35-2.83.08-.5-.68-.71-.76-.21q-.3,1.89-.45,3.79c-2.34,2.05-4.66,4.2-6.83,6.48a28.17,28.17,0,0,1-.14-4.82c0-.51-.76-.51-.79,0a29,29,0,0,0,.23,5.57,54.59,54.59,0,0,0-3.88,4.69,15.64,15.64,0,0,1-2.7-6.3c-.09-.5-.85-.29-.76.21a16.17,16.17,0,0,0,2.92,6.68.4.4,0,0,0,.08.07,30.5,30.5,0,0,0-6.06,16.83c0,.51.77.51.79,0a29.64,29.64,0,0,1,5.81-16.25,30.43,30.43,0,0,0,9.78,1c.5,0,.51-.82,0-.79a29.82,29.82,0,0,1-9.29-.86,57.24,57.24,0,0,1,5.5-6.38l.07,0c1.84.16,3.68.33,5.53.39a6.75,6.75,0,0,0,3.43-.4c.45-.23.05-.91-.4-.68-1.27.64-3.05.3-4.42.22-1.17-.07-2.34-.17-3.51-.27,2.81-2.79,5.83-5.38,8.74-7.84C357.16,120.11,356.6,119.56,356.21,119.88Z" fill="#06577a"></path><path d="M331.76,135.24A.39.39,0,0,0,331,135a14,14,0,0,1-5.06,7.28q-1.34-3.72-2.45-7.53a23.57,23.57,0,0,0,4.63-6.53c.22-.46-.46-.86-.68-.4a23,23,0,0,1-4.21,6c-.82-2.9-1.55-5.84-2.16-8.8-.1-.5-.86-.29-.76.21q1.26,6.08,3.11,12a18.51,18.51,0,0,1-4.31-1.41c-.46-.22-.86.46-.4.68a19.36,19.36,0,0,0,5,1.59h0c.83,2.6,1.77,5.16,2.76,7.7a19.08,19.08,0,0,1-6.86-1.51c-.46-.2-.86.48-.4.68a20.13,20.13,0,0,0,7.57,1.63q1.9,4.74,4.18,9.34c.23.45.91.06.68-.4a123.17,123.17,0,0,1-5.41-12.53h0A14.84,14.84,0,0,0,331.76,135.24Z" fill="#06577a"></path><path d="M346,145.45l-2.17,3.64a6.81,6.81,0,0,1-.69-1.14c-.22-.46-.9-.06-.68.4a7.52,7.52,0,0,0,.91,1.44l0,0-2.35,3.95a1.61,1.61,0,0,1-.48-.95c-.06-.5-.85-.5-.79,0a2.48,2.48,0,0,0,.87,1.62l-2.94,4.94a.39.39,0,0,0,.68.4l3.88-6.51a5.9,5.9,0,0,0,1.92-.29c.48-.16.27-.92-.21-.76a5.25,5.25,0,0,1-1.22.23l3.93-6.6A.39.39,0,0,0,346,145.45Z" fill="#06577a"></path><polygon points="64.63 202.68 64.63 209.23 71.23 205.95 64.63 202.68" fill="#ffb888"></polygon><polygon points="328.03 181.63 328.03 187.48 325.71 184.55 328.03 181.63" fill="#ffb888"></polygon><path d="M325.54,186c-28.85,15.48-113.72,64.46-140.44,79.92a16.22,16.22,0,0,1-16.3,0L67.09,206.49c-4-2.36-2.75-6.83,1.33-9.14l141.95-82.47a4.86,4.86,0,0,1,4.79,0l110.49,62.84A4.74,4.74,0,0,1,325.54,186Z" fill="#ffc49c"></path><path d="M219,91.61a2.68,2.68,0,0,0-1.37-1.83,1.41,1.41,0,0,0-1.88.49,1.56,1.56,0,0,0-.14,1v0a3,3,0,0,0,.81,2.76,1.39,1.39,0,0,0,1.95,0A2.81,2.81,0,0,0,219,91.61Z" fill="#5a2500"></path><path d="M261.88,46.64,209.53,15.71a6.36,6.36,0,0,0-5-.34h0l-.08,0a6.59,6.59,0,0,0-1.11.49l-4.89,2.17L201,19.23h0l1.63,134a13.49,13.49,0,0,0,6.7,11.66l48.81,28.44-.76,4.58,6.62-3.5h0a4.06,4.06,0,0,0,2.11-3.58V54.1A8.67,8.67,0,0,0,261.88,46.64Z" fill="#83498C"></path><path d="M261.88,46.64,209.53,15.71a6.36,6.36,0,0,0-5-.34h0l-.08,0a6.59,6.59,0,0,0-1.11.49l-4.89,2.17L201,19.23h0l1.63,134a13.49,13.49,0,0,0,6.7,11.66l48.81,28.44-.76,4.58,6.62-3.5h0a4.06,4.06,0,0,0,2.11-3.58V54.1A8.67,8.67,0,0,0,261.88,46.64Z" fill="#3f3d56" opacity="0.33"></path><path d="M253.64,197.69,203,168.2a13.49,13.49,0,0,1-6.7-11.66V21.3a3.58,3.58,0,0,1,5.41-3.09L255.54,50a8.67,8.67,0,0,1,4.26,7.47V194.14A4.1,4.1,0,0,1,253.64,197.69Z" fill="#f4f4f4"></path><polygon points="256.59 65.72 198.93 32.66 198.93 150.96 256.59 184.29 256.59 65.72" fill="#054f70"></polygon><ellipse cx="222.39" cy="172.55" rx="2.66" ry="3.59" transform="translate(-33.99 56.35) rotate(-13.43)" fill="#bababc"></ellipse><path d="M220.24,38.35h0a1.29,1.29,0,0,0,.65,1.12L232,45.86A1.29,1.29,0,0,0,234,44.75v-.27a1.29,1.29,0,0,0-.67-1.13l-11.14-6.13A1.29,1.29,0,0,0,220.24,38.35Z" fill="#ccc"></path><ellipse cx="215.12" cy="34.94" rx="1.26" ry="1.72" transform="matrix(0.94, -0.35, 0.35, 0.94, 1.24, 76.83)" fill="#ccc"></ellipse><path d="M231.68,93a7.78,7.78,0,0,1-.69,4.11,3.86,3.86,0,0,1-2.93,2.3,3.08,3.08,0,0,1-2.07-.57l-.19-.12-.12-.09,0-.06c0-.27,0-.55,0-.83a6.85,6.85,0,0,1,1-3.64,3.44,3.44,0,0,1,4.19-1.46c.22.06.45.17.68.26Z" fill="#fff"></path><path d="M231,102.11a11,11,0,0,1,1.43,1.13,15.38,15.38,0,0,1,3.4,4.48,19,19,0,0,1,.91,2.07l-.54.16a3.65,3.65,0,0,0-2.3,2.45,10,10,0,0,0-.42,3.6,15.41,15.41,0,0,0,.62,3.78,18.87,18.87,0,0,0,2.44,5.19c.24.36.51.68.77,1l-.06.21c-.17.48-.33,1-.51,1.44a12.35,12.35,0,0,1-2.5,3.92,3.87,3.87,0,0,1-1.61,1.17,2.36,2.36,0,0,1-2-.37,4.88,4.88,0,0,1-.56-.42,18.13,18.13,0,0,1-1.89-2,10.91,10.91,0,0,0-2.2-2.09l-.14-.09a5.65,5.65,0,0,0-2.33-.85,16.38,16.38,0,0,1-1.68-.29,3,3,0,0,1-.92-.4A6.22,6.22,0,0,1,219,124c-.37-.64-.73-1.31-1-2a51.65,51.65,0,0,1-3.48-10.36,39.18,39.18,0,0,1-1-8.6,14.19,14.19,0,0,1,.85-5.21c.93-2.24,2.42-3.3,4.54-2.94a5.26,5.26,0,0,1,2,.79q.25.16.49.35a13.91,13.91,0,0,1,1.88,1.85l2,2.27a2.42,2.42,0,0,0,.49.43,1.26,1.26,0,0,0,.48.19l2,.34a7.06,7.06,0,0,1,2.57.87Z" fill="#fff"></path><path d="M132,225.35a6.77,6.77,0,0,0-.57-.42L164,203.49l25.44,19.15-27.63,19.81C152.25,236,141.42,232,132,225.35Z" fill="url(#linear-gradient)" style="mix-blend-mode: multiply;"></path><path d="M183.15,99.87a10,10,0,0,1,.68-1.34.14.14,0,0,0,0,.07.18.18,0,0,0,.32.05l.49-.75a.87.87,0,0,0,0,.29.75.75,0,0,0,.83.59.74.74,0,0,0,.66-.93l.23-.26a.74.74,0,0,0,0,.23.65.65,0,0,0,1.08.27c.09-.07.16-.16.25-.24a.55.55,0,0,0,.44,0,16.8,16.8,0,0,0,1.88-.77.29.29,0,0,1-.09-.46,18.76,18.76,0,0,1,2.28-1.58l.1,0,0-.08a2.56,2.56,0,0,0-.12-1.84,2,2,0,0,0,.41-1.7.31.31,0,0,1-.17-.07,1.39,1.39,0,0,1-.29-.34,1.94,1.94,0,0,1-.32-.59.26.26,0,0,1,.1-.29c-.3-.4-.64-.77-1-1.11a7.5,7.5,0,0,0,1-4.21.64.64,0,0,0-1.2-.31,13.59,13.59,0,0,0-.79,1.44.54.54,0,0,0-.18.2,79.58,79.58,0,0,1-4.2,7.55c-.26.41-3.45,4.81-3.09,4.91C182.55,98.76,179.93,104.79,183.15,99.87ZM185,98s0,0,0,0a.17.17,0,0,0,.26,0l0,0a.66.66,0,0,0,.55.11A.42.42,0,0,1,185,98Z" fill="#fcbf81"></path><path d="M183.5,98.47a7,7,0,0,0,1.72-2,1.34,1.34,0,0,1,1.86-.52,7.86,7.86,0,0,0,.07-1.07c0-1.81,2.85-1.84,2.82,0a6.86,6.86,0,0,1-1.09,4,11.55,11.55,0,0,1-3.07,2.72,1.45,1.45,0,0,1-2.15-1.09l-.13-.1A1.42,1.42,0,0,1,183.5,98.47Z" fill="#fcbf81"></path><path d="M188,99.55a5.72,5.72,0,0,0,2.39-3.34.16.16,0,0,0,.23.05l1.13-.76a2.63,2.63,0,0,0,.63-.52c.41-.52,0-1.12-.16-1.66a.17.17,0,0,0-.06-.08l.16-.27a2.41,2.41,0,0,0,.42-1.4c-.08-.49-.54-.81-.76-1.23a1.09,1.09,0,0,0-.66-1.2c-.6-.27-.93.18-1.26.62q-1,1.42-2,2.91c-.12.19.19.36.31.17.34-.54.68-1.07,1-1.59a6.64,6.64,0,0,1,1.14-1.59c1.26-.73,1,1,.81,1.46-.12.26-.27.51-.42.76L190,93.57a.17.17,0,0,0,0,0,.16.16,0,0,0,0,.14,5,5,0,0,1-2.17,5.51C187.65,99.38,187.83,99.68,188,99.55Zm2.56-5.74a.16.16,0,0,0-.19,0l0-.12a13.4,13.4,0,0,0,1.54-2.87c.09.11.18.22.26.34a1.07,1.07,0,0,1,.07,1.18C192,92.91,191.35,94.25,190.58,93.82ZM190.46,96a4.93,4.93,0,0,0,0-1.81c.6.3,1.12-.1,1.49-.59a3.89,3.89,0,0,1,.25.7.73.73,0,0,1-.38.78C191.39,95.36,190.92,95.65,190.46,96Z" fill="#34323d"></path><path d="M167.87,105.24s8.23.39,10.37-1.58,5.23-8.18,5.23-8.18,5.67,3.64,6,5.74-5.93,12.24-8.68,12.92" fill="#83498C"></path><path d="M155.39,206.71s7-3.09,8.63-3.22,4.47.45,2,3.52c0,0-7.32,4.79-8.28,4.94s-3.31-.58-3.37-.33-.28,2.1-.28,2.1-6.12,2.33-6.38-1.76c0-.53.88-8.13.88-8.13" fill="#34323d"></path><path d="M147.41,188.78c1.21-7.86,3.42-15.48,4.35-23.44.58-5,1-10,1.61-15s2.48-9.84,3.68-14.79a.54.54,0,0,0-.25-.61c.06-.17.11-.35.16-.52.62-.59,1.25-1.15,1.86-1.68l8.55,5.76s-.05,5.24-.32,12.82c-1,4.42-1.75,8.37-2.87,12.56a1.1,1.1,0,0,1,.26,1,355.19,355.19,0,0,0-6.07,40,1.16,1.16,0,0,1-.76,1l-.24,2.07c-7.44,2.87-9.07-2.13-9.07-2.13s-.34-4.26-.76-10.18C147.39,193.32,147.36,191,147.41,188.78Z" fill="#34323d"></path><path d="M210.36,108.56c-.44.26-.92.56-1.47.93a19.76,19.76,0,0,0,1.94-3c.55-.92-.82-1.68-1.49-1a58.06,58.06,0,0,1-6.11,5.75.93.93,0,0,0-.25.28l-1.33,0c-.4,0-.77,0-1.14,0l-.32,0a.81.81,0,0,0-.75.23,2.59,2.59,0,0,0-.5.23.84.84,0,0,0-.14.12c-.44,0-.88.08-1.31.14a1,1,0,0,0-.71,1.37l-.18-.1c-1-.61-1.77,1-.79,1.63a13.2,13.2,0,0,0,6.92,1.95.79.79,0,0,0,.78.1l.42-.15a20,20,0,0,0,6.06-1.26,5.48,5.48,0,0,1,1.62-.37h0C211.25,113.12,210.79,110.84,210.36,108.56Z" fill="#fcbf81"></path><path d="M170.61,218.15l4.13,1.48a2.28,2.28,0,0,0,1.67,1.52.92.92,0,0,0,.58.32,10.83,10.83,0,0,0,4.91-.8c2-.62,9.71-3.58,7.56,2-1.41,1-3,1.85-4.43,2.73-.81.49-1.63,1-2.46,1.44a4.88,4.88,0,0,1-1.44.67c-1.11.17-3.81-.67-3.88-.38s-.32,2.42-.32,2.42-7,2.68-7.34-2C169.55,226.87,170.61,218.15,170.61,218.15Z" fill="#34323d"></path><path d="M164.79,175.86c-.86-13.9-1.34-27.88-4.27-41.55-.13-3.55-2.43-1.28-2.27-2.69,1.25-11.43,17.91,2.17,17.91,2.17.67.55.76,4.06.89,4.85q1.13,6.59,1.93,13.22c2.76,22.33,1.74,44.54.61,66.94-3.54,3.62-5.86,4.7-11.56,2.36-1.14-14.66-2.22-29.32-3.16-44Z" fill="#34323d"></path><path d="M173.7,106.76c-.16-.72-2-1.21-2.58-1.51-1.29-.7-.54-1.92-1.8-2.68a43.37,43.37,0,0,0-5.72-2.79h-.05c-3.16,0-8.46-.18-8.78,4-.49,6.5.08,13,.58,19.46.2,2.6.43,5.18.66,7.72.08.93.2,8.43.76,8.66,6.27,2.6,14.29,1.68,20.43-.75A208.6,208.6,0,0,0,173.7,106.76Z" fill="#83498C"></path><path d="M168.07,113.32a10.6,10.6,0,0,0,7.79,9.31c0,.43.13,3.07.18,3.5-5-1.2-8.7-7.49-9.22-12.81C166.73,112.52,168,112.52,168.07,113.32Z" fill="#34323d"></path><path d="M165,86.64c.41.11,3.92,8.17,2.54,13.06s-9.69-.14-11.78-3.87S157.14,84.6,165,86.64Z" fill="#fcbf81"></path><path d="M164.9,87.76a3.87,3.87,0,0,1-2.32,3.52c-2.33.86-4.26,1.44-4.14,2.52s4.21-.15,4.22,2.31A18.37,18.37,0,0,1,162,101c-.26,1.21-7.24-2.49-9.54-8.81s3.46-8,3.74-8,.8-1.76,3.63-2.37,3.62.48,3.62.48a3.43,3.43,0,0,1,4.13.45c2.61,2.07,1.94,5.85-1,7.38Z" fill="#34323d"></path><path d="M168.05,101.87s14.38,8.24,19.56,8.25c3.74,0,11.14-1.21,15-1.89,3.56,3,3.8,8.3,1.59,12.35-6.28,1-24.88,3.7-30.71.81-7.06-3.5-14.83-8.19-14.83-8.19S151.61,106.3,168.05,101.87Z" fill="#83498C"></path><path d="M208.89,109.49s2.15-1.77,2.71-1.41a8.61,8.61,0,0,1,1.69,5.15c-.18,1.78-1.09,3.29-5.51,3.24" fill="#fcbf81"></path><path d="M110.27,71.91c-.14-.39-.72-.12-.58.26.41,1.14.45,2.88-.62,3.7a1.2,1.2,0,0,1-.25.15,1,1,0,0,0,0-.47,2.14,2.14,0,0,0-.42-.87,4.85,4.85,0,0,1-.38-.54,6.89,6.89,0,0,1,.63-.73c.28-.29-.12-.79-.4-.49l-.36.39a.32.32,0,0,0-.5.12,1,1,0,0,0-.06.63,2.35,2.35,0,0,0-.31.84c-.73.65-.28,2.18.91,1.89l.15-.05a1.29,1.29,0,0,0,.33,0,2.23,2.23,0,0,0,1.81-1.5A4.64,4.64,0,0,0,110.27,71.91Zm-2.57,3.36,0,0a.24.24,0,0,0,.19-.22l.11.17a.78.78,0,0,1,.08.81A.89.89,0,0,1,107.7,75.27Z" fill="#ff413b"></path><path d="M107.19,56.41c.28-.3-.24-.68-.51-.37a2.29,2.29,0,0,0,.28,3.27c.32.26.69-.26.37-.51A1.65,1.65,0,0,1,107.19,56.41Z" fill="#ff413b"></path><path d="M122.11,61.33l-.33,0-.39-.39c-.29-.28-.79.12-.49.4l.09.08a12.56,12.56,0,0,0-2.62.69c-.38.15-.12.73.26.58a11.5,11.5,0,0,1,2-.56,2.07,2.07,0,0,0-.35,1.44,1.07,1.07,0,0,0,.42.65.32.32,0,0,0,.57.2,1,1,0,0,0,.26,0,1.51,1.51,0,0,0,1.08-1.33,1.79,1.79,0,0,0-.27-1l.14-.31A.32.32,0,0,0,122.11,61.33ZM121,63.57a.91.91,0,0,1,0-.58,2.78,2.78,0,0,1,.54-1h0l.08.11Z" fill="#ff413b"></path><path d="M94,94.24c-.39-.13-.62.46-.23.59.84.28,2.15.71,2,1.82-.06.57-.5.9-1,.6A2.54,2.54,0,0,1,94,96.13c-.18-.37-.76-.11-.58.26a2.78,2.78,0,0,0,1.38,1.56,1.23,1.23,0,0,0,1.51-.61C97.14,95.7,95.29,94.67,94,94.24Z" fill="#ff413b"></path><path d="M93,67.06c-.28-.29-.78.11-.49.4a1.94,1.94,0,1,1-3,2.42c-.23-.34-.72.06-.49.4a2.57,2.57,0,1,0,4-3.22Z" fill="#ff413b"></path><path d="M115.52,43.31c9.91,4.52,12.11,21,4.91,36.77s-21.08,24.91-31,20.39S75.95,77.2,83.15,61.41,105.61,38.79,115.52,43.31Z" fill="#83498C"></path><path d="M115.52,43.31c9.91,4.52,12.11,21,4.91,36.77s-21.08,24.91-31,20.39S75.95,77.2,83.15,61.41,105.61,38.79,115.52,43.31Z" opacity="0.13"></path><path d="M113.09,50.1c7.95,3.63,9.89,16.44,4.34,28.61S100.92,97.81,93,94.18,81.89,76.59,87.45,64.41,105.14,46.47,113.09,50.1Z" fill="#fff"></path><path d="M108.81,53.73l-6.56,19.93,1.85-1-9.23-2.08c-1.88-.42-2.68,2.47-.8,2.89l9.23,2.08a1.54,1.54,0,0,0,1.85-1l6.56-19.93c.6-1.84-2.29-2.63-2.89-.8Z" fill="#42210b"></path><path d="M102.3,53.78a1.17,1.17,0,0,0,.36,2.31A1.17,1.17,0,0,0,102.3,53.78Z" fill="#606060"></path><path d="M104.8,88.89a1.17,1.17,0,0,0,.36,2.31A1.17,1.17,0,0,0,104.8,88.89Z" fill="#606060"></path><path d="M117.61,67.13a1.17,1.17,0,0,0,.36,2.31A1.17,1.17,0,0,0,117.61,67.13Z" fill="#606060"></path><path d="M88.63,75.19A1.17,1.17,0,0,0,89,77.5,1.17,1.17,0,0,0,88.63,75.19Z" fill="#606060"></path><path d="M103.7,74.06s-8.77-18-8.79-17.93S89,62.85,86.77,70.61Z" fill="#36b2bf" opacity="0.37"></path></g></g></svg>